<?xml version="1.0" encoding="UTF-8" standalone="no"?>
<!-- Created with Inkscape (http://www.inkscape.org/) -->
<svg width="120" height="120" viewBox="0 0 120 120" version="1.1" id="svg5" inkscape:version="1.1.1 (3bf5ae0d25, 2021-09-20)" sodipodi:docname="logo.svg" xmlns:inkscape="http://www.inkscape.org/namespaces/inkscape" xmlns:sodipodi="http://sodipodi.sourceforge.net/DTD/sodipodi-0.dtd" xmlns="http://www.w3.org/2000/svg" xmlns:svg="http://www.w3.org/2000/svg">
  <sodipodi:namedview id="namedview7" pagecolor="#505050" bordercolor="#ffffff" borderopacity="1" inkscape:pageshadow="0" inkscape:pageopacity="0" inkscape:pagecheckerboard="1" inkscape:document-units="px" showgrid="false" inkscape:zoom="2" inkscape:cx="-6.75" inkscape:cy="95.75" inkscape:window-width="1842" inkscape:window-height="985" inkscape:window-x="-8" inkscape:window-y="-8" inkscape:window-maximized="1" inkscape:current-layer="layer1" showguides="true"/>
  <defs id="defs2"/>
  <g inkscape:label="Capa 1" inkscape:groupmode="layer" id="layer1">
    <path id="path10006" style="fill:#1c4c96;fill-opacity:1;fill-rule:evenodd;stroke:#1c4c96;stroke-width:1.06647;stroke-opacity:1" d="M 80.311119,55.421527 A 18.061548,18.061548 0 0 1 62.249571,73.483075 18.061548,18.061548 0 0 1 44.188023,55.421527 18.061548,18.061548 0 0 1 62.249571,37.359978 18.061548,18.061548 0 0 1 80.311119,55.421527 Z m 2.36578,-27.878688 v 6.956662 c 0,0 -8.219085,-4.650047 -12.78216,-5.429589 -6.759342,-1.154745 -14.357377,-1.684626 -20.530637,1.300839 -7.126401,3.446416 -13.658075,10.052151 -15.892862,17.646168 -2.393994,8.13502 -1.097176,18.389695 4.072192,25.111853 5.237043,6.81016 14.945012,10.154606 23.528223,10.519831 6.981518,0.297071 19.79538,-6.900104 19.79538,-6.900104 0,0 1.395944,7.159197 0,10.293597 C 79.009623,91.212661 74.96512,94.611584 70.686554,96.20453 65.385107,98.1783 59.176155,97.355657 53.719086,95.86518 49.126259,94.610752 41.276275,88.85196 41.276275,88.85196 l -7.239453,7.239453 c 0,0 10.964332,7.715377 17.985517,9.388667 7.519406,1.79201 16.491772,1.66066 23.773863,-0.93238 4.467267,-1.59073 8.932915,-6.1921 10.626086,-8.689381 4.215075,-6.216861 4.725571,-8.570239 4.750891,-10.519831 l 0.439919,-57.625974 z"/>
    <path style="fill:#1c4c96;fill-opacity:1;stroke:#1c4c96;stroke-width:0.0693923;stroke-miterlimit:4;stroke-dasharray:none;stroke-opacity:1" d="M 45.766103,118.86445 C 36.356263,116.37066 27.678891,111.62181 20.540688,105.05942 15.773843,100.67708 11.706811,95.389214 8.4800676,89.378419 6.9499694,86.528152 4.399688,79.913597 3.6625862,76.883439 1.086554,66.293955 1.2413569,56.291769 4.1375516,46.196585 5.6870915,40.795379 8.2392174,35.13643 11.263979,30.394786 16.739773,21.810882 24.579494,14.501761 33.58987,9.5799338 39.004578,6.6222026 45.324178,4.3273822 51.398168,3.1132523 67.820054,-0.16932155 85.044603,3.4855786 98.538302,13.115982 c 7.494968,5.349122 13.405338,12.092176 17.798818,20.306437 1.18207,2.210051 1.19635,2.47567 0.0355,0.661237 C 108.89671,22.397968 97.687043,13.964706 84.427208,10.050408 58.941854,2.5271647 31.350384,12.96211 17.250562,35.456253 4.6401447,55.574281 5.7804913,81.244291 20.109345,99.809235 c 5.152277,6.675475 11.732005,12.089695 19.472633,16.023345 2.10343,1.06893 5.793942,2.61181 7.522177,3.14478 0.430073,0.13263 0.790058,0.26253 0.799979,0.28867 0.0558,0.14704 -0.36911,0.0667 -2.138031,-0.40158 z" id="path32772"/>
  </g>
</svg>